<?xml version="1.0" encoding="utf-8"?>
<!-- Generator: Adobe Illustrator 21.1.0, SVG Export Plug-In . SVG Version: 6.00 Build 0)  -->
<svg version="1.1" id="_073017_US_BTSUpTo50_hp_VisNav_row1_mod16_1_xl_text.svg"
	 xmlns="http://www.w3.org/2000/svg" xmlns:xlink="http://www.w3.org/1999/xlink" x="0px" y="0px" viewBox="0 0 622 320"
	 style="enable-background:new 0 0 622 320;" xml:space="preserve">
<style type="text/css">
	.st0{fill:#9830AE;fill-opacity:0;}
	.st1{fill:#004779;}
	.st2{fill:#FFFFFF;}
	.st3{fill:#003765;}
	.st4{fill:#FF6B00;}
	.st5{fill:#009877;}
	.st6{fill:#F3B223;}
</style>
<rect id="_654_x_320_container" class="st0" width="622" height="320"/>
<g id="Active_Uniform_Pricepoint">
	<g id="activewear_uniform">
		<path class="st1" d="M131,86c-4,0-7.6-1.7-9.9-4.3c-0.5,2.3-2.5,3.9-4.9,3.9h-5.5c-1.3,0-2.6-0.5-3.5-1.4
			c-0.9,0.9-2.1,1.4-3.5,1.4h-5.5c-1.1,0-2.1-0.3-2.9-0.9c-0.8,0.6-1.9,1-3,1h-5.5c-0.6,0-1.1-0.1-1.6-0.3c-0.4,0.1-0.8,0.2-1.3,0.2
			h-5.5c-1,0-2-0.3-2.8-0.9c-0.8,0.6-1.8,0.9-2.8,0.9c0,0-5.2-0.1-5.2-0.1c-0.4,0-0.8-0.1-1.1-0.2c-1,0.3-2,0.5-3.2,0.5
			c-3.2,0-5.3-1.3-6.5-2.4c-0.2-0.2-0.4-0.4-0.6-0.6c-1.6-1.9-2.3-4.4-2.2-6.9v-9.7c0-2.8,2.2-5,5-5h5.5c0.5,0,1.1,0.1,1.6,0.3
			c0.4-0.1,0.8-0.2,1.2-0.2h5.5c1.1,0,2.1,0.3,2.9,0.9c0.8-0.5,1.7-0.8,2.7-0.8h5.2c0.4,0,0.7,0,1.1,0.1c0.9-0.3,1.8-0.4,2.8-0.4
			c0.1,0,0.2,0,0.2,0c0.1,0,0.2,0,0.3,0c1.8,0,3.6,0.5,5.2,1.6v-1.5c0-2.8,2.2-5,5-5h5.5c2,0,3.7,1.1,4.5,2.8
			c2.7-2.9,6.5-2.9,7.9-2.9c0.1,0,0.2,0,0.4,0c1.5,0.1,2.9,0.2,4.5,0.4c2.5,0.4,4.3,2.5,4.3,4.9v0.8c1.7-0.8,3.6-1.2,5.7-1.2
			c3.2,0,5.9,0.9,8.1,2.6c0.9-1.4,2.4-2.3,4.2-2.3h4.7c0.3,0,0.5,0,0.7,0.1c1-0.4,2-0.5,2.8-0.5c0.1,0,0.3,0,0.4,0
			c0.1,0,0.3,0,0.4,0l0.8,0.1c0.7,0.1,1.4,0.3,2,0.7c0.7-0.3,1.4-0.5,2.2-0.5c0.3,0,0.7,0,1,0.1h4c0.4,0,0.7,0,1.1,0.1
			c0.9-0.3,1.8-0.4,2.7-0.4c0.1,0,0.2,0,0.2,0c0.1,0,0.2,0,0.3,0c1.3,0,2.6,0.3,3.8,0.8c1.2-0.5,2.6-0.8,3.9-0.8c0.1,0,0.2,0,0.2,0
			c0.1,0,0.2,0,0.4,0c2.3,0,4.5,0.9,6.3,2.5c0.1,0.1,0.3,0.2,0.4,0.4c2.3,2.5,2.3,5.4,2.3,7.4v9.4c0,2.8-2.2,5-5,5h-5.4
			c-0.5,0-1-0.1-1.5-0.2c-0.4,0.1-0.8,0.1-1.2,0.1h-5.4c-0.5,0-0.9-0.1-1.4-0.2c-0.4,0.1-0.9,0.2-1.4,0.2h-5.4c-1.8,0-3.4-1-4.3-2.4
			c-0.9,1.5-2.5,2.5-4.3,2.5h-5.5c-1.8,0-3.3-0.9-4.2-2.3C136.9,85,134.1,86,131,86z M29.4,86c-7.5,0-12.7-4.5-12.7-10.9
			c0-1.9,0.5-4.8,3.1-7.3c-0.1-0.5-0.2-1-0.2-1.5c0-0.1,0-0.2,0-0.4c0-5.9,4.5-9.8,11.3-9.8c6.2,0,10.6,3.7,11,9l0.4,0.1
			c1.4,0.2,2.7,0.9,3.5,2.1s1.1,2.6,0.8,4c-0.2,0.8-0.4,1.6-0.7,2.4c0.6,0.8,0.9,1.8,0.9,2.8v4.1c0,2.3-1.6,4.3-3.8,4.9
			c-1.2,0.3-2.2,0.4-3.4,0.4c-0.2,0-0.4,0-0.6,0c-1.4,0-2.9-0.3-4.2-0.8C32.7,85.9,30.5,86,29.4,86z M163.5,52.5
			c-3.2,0-5.9-1.3-7.7-3.3c-2.2,1.9-5.1,3-8.5,3c-0.2,0-0.3,0-0.5,0c-3.1,0-6.2-1.1-8.6-3c-0.1-0.1-0.2-0.1-0.3-0.2
			c-0.6-0.5-1.1-1.1-1.6-1.8l-0.5,1.5c-0.7,2.1-2.6,3.5-4.8,3.5h-4c-0.7,0-1.3-0.1-1.9-0.4c-0.6,0.2-1.2,0.4-1.9,0.4h-4
			c-2.2,0-4.1-1.4-4.8-3.5l-0.5-1.6c-2.2,3.2-5.9,5.1-10.4,5.2c-0.2,0-0.3,0-0.5,0c-3.1,0-6.2-1.1-8.6-3c-0.1-0.1-0.2-0.1-0.3-0.2
			c-1-0.9-1.8-2-2.4-3.1l-1.1,2.9c-0.7,1.9-2.6,3.2-4.7,3.2H82c-2.1,0-4-1.3-4.7-3.3l-0.7-1.9v0.3c0,2.8-2.2,5-5,5h-5.5
			c-0.9,0-1.8-0.3-2.6-0.7c-0.3,0.2-0.7,0.3-1,0.4c-1.7,0.4-3.4,0.6-5,0.6c-2.8,0-5.3-1.1-7.1-3.2c-0.3-0.3-0.6-0.7-0.8-1
			c-2.1,2.5-5.3,3.9-9,3.9c-0.2,0-0.3,0-0.5,0c-2.7,0-5.2-0.9-7.3-2.4c0,0,0,0.1-0.1,0.1c-0.9,1.4-2.4,2.2-4.1,2.2
			c0,0-5.4,0.1-5.4,0.1c-0.5,0-0.9-0.1-1.4-0.2c-1,0.3-2.1,0.5-3.2,0.5c-0.1,0-0.3,0-0.4,0c-5.7-0.1-9.9-4-9.9-9.3
			c0-1.4,0.3-2.8,0.9-4c-0.4-1-0.6-2.1-0.3-3.2c0.6-2.5,2.9-8.4,12.1-8.4c0.2,0,0.4,0,0.7,0c2.5,0,5,0.6,7.1,1.9
			c0.1,0.1,0.3,0.1,0.4,0.2c0.8,0.5,1.4,1.1,1.9,1.7c2.2-2.5,5.5-4,9.1-4l0.2,0c2.6,0,4.9,0.7,6.8,2c0.4-0.4,0.8-0.7,1.3-1l0.1-0.6
			c0.2-2.5,2.3-4.5,4.8-4.6l4.8-0.2c0.1,0,0.1,0,0.2,0c1.3,0,2.5,0.5,3.5,1.4c0.1,0.1,0.2,0.2,0.2,0.2c0.9-1.2,2.4-2,4-2h5.5
			c2.8,0,5,2.2,5,5v0.1c0,0,5.9,0,5.9,0c1,0,1.9,0.3,2.6,0.8c0.7-0.4,1.6-0.7,2.5-0.7h4c1.5,0,3,0.7,3.9,1.9
			c2.2-1.6,4.9-2.4,7.8-2.4c3,0,5.6,0.8,7.7,2.3c0.9-1.1,2.4-1.8,3.8-1.8h5.5c0.6,0,1.3,0.1,1.9,0.4c0.6-0.2,1.2-0.4,1.9-0.4h4.1
			c0.7,0,1.3,0.1,1.9,0.4c0.6-0.2,1.2-0.4,1.9-0.4h3.9c1.4,0,2.8,0.6,3.7,1.7c2.1-1.4,4.7-2.2,7.4-2.2c4,0,7.4,1.5,9.6,4.1
			c1.8-2,4.7-3.8,9.8-3.8c0.2,0,0.4,0,0.7,0c2.5,0,5,0.6,7.1,1.9c0.1,0.1,0.3,0.1,0.4,0.2c0.1,0.1,0.2,0.1,0.2,0.2
			c0.9-1.2,2.4-2,4-2h4.7c0.3,0,0.5,0,0.8,0.1c0.9-0.3,1.9-0.5,2.9-0.5c0.1,0,0.3,0,0.4,0c0.1,0,0.3,0,0.4,0l0.8,0.1
			c2.5,0.3,4.4,2.4,4.4,5v5c0,1.5-0.7,3-1.9,3.9c-0.6,0.4-1.2,0.7-1.9,0.9v4.7c0,2.8-2.2,5-5,5h-5.6c-0.9,0-1.8-0.2-2.5-0.7
			c-0.7,0.4-1.5,0.7-2.4,0.7c0,0-5.4,0.1-5.4,0.1c-0.5,0-0.9-0.1-1.4-0.2c-1,0.3-2.1,0.5-3.2,0.5C163.8,52.5,163.6,52.5,163.5,52.5z
			"/>
		<path class="st2" d="M71.6,27.6v3.8h-5.5v-3.8H71.6 M58.4,28v4.8h2.9v3.6h-2.8v4.9c0,1-0.1,1.8,1.2,1.8c0.5,0,1.1,0,1.6-0.2v4
			c-1.2,0.3-2.5,0.5-3.8,0.5s-2.5-0.5-3.4-1.5C53,44.7,53,43.3,53,41.8v-5.4h-2.1v-3.6h2.3l0.4-4.6L58.4,28 M146.9,32.3
			c4.8,0,7.7,3.1,7.7,7.8v0.8H145c0,1.6,0.5,2.7,2.2,2.7h0.1c0.1,0,0.1,0,0.2,0c1,0,1.8-0.8,1.9-1.7l5.1,0.2
			c-0.8,3.5-3.9,5.1-7.3,5.1c-0.1,0-0.3,0-0.4,0c-2,0-3.9-0.7-5.4-1.9c-1.5-1.4-2.3-3.4-2.3-5.4s0.7-3.9,2.1-5.4
			C142.7,33,144.8,32.3,146.9,32.3 M145,38.2h4c0-1.4-0.4-2.5-2-2.5C145.5,35.7,145,36.9,145,38.2 M103.3,32.3
			c4.8,0,7.7,3.1,7.7,7.8v0.8h-9.6c0,1.6,0.5,2.7,2.2,2.7h0.1c0.1,0,0.1,0,0.2,0c1,0,1.8-0.8,1.9-1.7l5.1,0.2
			c-0.8,3.5-3.9,5.1-7.3,5.1c-0.1,0-0.3,0-0.4,0c-2,0-3.9-0.7-5.4-1.9c-1.5-1.4-2.3-3.4-2.3-5.4s0.7-3.9,2.1-5.4
			C99.1,33,101.2,32.3,103.3,32.3 M101.5,38.2h4c0-1.4-0.4-2.5-2-2.5C102,35.7,101.5,36.9,101.5,38.2 M187.2,32.4c0.1,0,0.2,0,0.2,0
			l0.8,0.1v5c-0.4-0.1-0.7-0.1-1.1-0.1c-0.1,0-0.2,0-0.3,0c-0.8,0-1.6,0.4-2,1c-0.3,0.8-0.5,1.7-0.4,2.5v6.2h-5.6V32.8h4.7v2.9
			C184,33.8,185,32.4,187.2,32.4 M40.3,32.4c0.1,0,0.1,0,0.2,0c3.5,0,6.3,2.1,6.7,5.7l-4.9,0.4v-0.1c-0.2-1-0.5-2.1-1.7-2.1
			c-1.8,0-1.8,2.3-1.8,3.6c0,1.3,0,3.5,1.8,3.5c1.2,0,1.7-1.1,1.8-2.1l4.9,0.2c-0.5,3.7-3.2,5.7-6.8,5.7c-0.1,0-0.3,0-0.4,0
			c-1.9,0-3.6-0.7-4.9-2c-1.4-1.4-2.2-3.4-2.1-5.4c0-0.2,0-0.4,0-0.6C33.3,35.4,36.5,32.4,40.3,32.4 M167,32.6
			c1.6,0,3.2,0.4,4.7,1.2c1.9,1.3,1.7,3.2,1.7,5.2v5c-0.1,1,0,2.1,0.4,3.1l-5.3,0.1c-0.1-0.7-0.2-1.3-0.2-2c-1,1.5-2.6,2.3-4.4,2.3
			c-0.1,0-0.2,0-0.3,0c-2.7,0-5-1.5-5-4.3c0-2.3,1.8-3.8,3.8-4.4c1.8-0.5,3.7-0.8,5.6-0.9v-0.1c0-1.3-0.4-1.8-1.7-1.8
			c-0.1,0-0.1,0-0.2,0c-0.9,0-1.7,0.7-1.9,1.6l-5.1-0.5c0.8-3.6,4.2-4.5,7.4-4.5C166.7,32.6,166.9,32.6,167,32.6 M165.7,44
			c0.1,0,0.1,0,0.2,0c2.1,0,2.1-1.7,2.1-3.3h0.1v-0.3c-1.4,0.1-3.6,0.6-3.6,2.3c0,0.1,0,0.2,0,0.3C164.6,43.6,165.1,44,165.7,44
			 M21.8,32.6c1.6,0,3.2,0.4,4.7,1.2c1.9,1.3,1.7,3.2,1.7,5.2v5c-0.1,1,0,2.1,0.4,3.1l-5.3,0.1c-0.1-0.7-0.2-1.3-0.2-2
			c-1,1.5-2.6,2.3-4.4,2.3c-0.1,0-0.2,0-0.3,0c-2.7,0-5-1.5-5-4.3c0-2.3,1.8-3.8,3.8-4.4c1.8-0.5,3.7-0.8,5.6-0.9v-0.1
			c0-1.3-0.4-1.8-1.7-1.8c-0.1,0-0.1,0-0.2,0c-0.9,0-1.7,0.7-1.9,1.6l-5.1-0.5c0.8-3.6,4.2-4.5,7.4-4.5
			C21.5,32.6,21.7,32.6,21.8,32.6 M20.4,44c0.1,0,0.1,0,0.2,0c2.1,0,2.1-1.7,2.1-3.3l0.1-0.3c-1.4,0.1-3.6,0.6-3.6,2.3
			c0,0.1,0,0.2,0,0.3C19.3,43.6,19.8,44,20.4,44 M82.5,32.7l2.5,7.6l2.6-7.5h4L86.2,47H82l-5.3-14.3H82.5 M135.8,32.8l-4.6,14.3h-4
			l-1.8-7.8h-0.1l-1.9,7.8h-4l-4.6-14.3h5.5l1.8,7h0.1l1.8-7h4.1l1.8,7l2-7H135.8 M71.6,32.8v14.3h-5.5V32.8H71.6 M116.2,61.1
			c1.4,0.1,2.7,0.2,4.1,0.4V65c-1-0.1-1.9-0.2-2.9-0.2s-1.4,0.7-1.3,2h3.5v3.5h-3.4h-0.1h0.1v10.3h-5.5V70.3h-2v-3.5h2v-0.2
			c-0.2-1.4,0.2-2.8,1-3.9C112.8,61.3,114.5,61.1,116.2,61.1 M103.8,61.2V65h-5.5v-3.8H103.8 M30.9,61.2c2.9,0,6,1.3,6,4.7
			c0,2.2-1.5,4.1-3.6,4.7l1.9,2.2c0.8-0.9,1.3-2,1.5-3.2l5,0.6c-0.5,2.2-1.6,4.3-3.2,5.9c0.4,0.3,1,0.5,1.5,0.5c0.1,0,0.2,0,0.4,0
			c0.4,0,0.8,0,1.3-0.1v4.1c-0.8,0.2-1.5,0.3-2.3,0.3c-0.1,0-0.3,0-0.4,0c-1.5,0-2.9-0.5-4.1-1.5c-1.3,1.2-3.8,1.6-5.5,1.6
			c-3.7,0-7.7-1.7-7.7-5.9c0-2.9,2-4.4,4.5-5.3c-1-1.1-1.5-2.4-1.6-3.8C24.6,62.4,27.8,61.2,30.9,61.2 M31.1,67.8
			c0.8-0.2,1.4-1,1.4-1.8v-0.1c-0.1-0.8-0.7-1.3-1.5-1.3h-0.1c-0.6,0-1.2,0.5-1.2,1.2C29.9,66.7,30.4,67.4,31.1,67.8 M29.5,76.8
			c0.1,0,0.1,0,0.2,0c0.8,0,1.6-0.3,2.2-0.8l-3.2-3.5c-0.9,0.4-1.5,1.3-1.4,2.3C27.4,75.9,28.4,76.8,29.5,76.8 M151.6,66
			c0.1,0,0.1,0,0.2,0l0.8,0.1v5c-0.4-0.1-0.7-0.1-1.1-0.1c-0.1,0-0.2,0-0.3,0c-0.8,0-1.6,0.4-2,1c-0.3,0.8-0.5,1.7-0.4,2.5v6.2h-5.5
			V66.4h4.7v2.9C148.6,67.4,149.5,66,151.6,66 M175,66.1c1.1,0,2.2,0.5,3,1.2c1,1.1,1,2.5,1,4v9.4h-5.4v-8.6c0-1,0.1-2-1.2-2
			c-1.6,0-1.5,1.5-1.5,2.6v7.9h-5.4V72c0-0.8-0.1-2-1.3-2c-1.3,0-1.4,0.9-1.4,2v8.6h-5.4V66.3v0.1h5v1.9h0.1
			c0.8-1.3,2.1-2.2,3.7-2.2c0.1,0,0.2,0,0.2,0c0.1,0,0.2,0,0.3,0c1.5,0,3,0.8,3.7,2.2c0.8-1.4,2.4-2.2,4-2.2c0.1,0,0.2,0,0.3,0
			C174.8,66.1,174.9,66.1,175,66.1 M88.1,66.1c1.3,0,2.5,0.6,3.4,1.5c0.9,1.2,0.9,2.8,0.9,4.3v8.8h-5.5V72c0-0.9,0-2.1-1.2-2.1
			c-1.6,0-1.7,1.3-1.7,2.5v8.2h-5.5V66.4h5.2v2h0.1c0.7-1.4,2.1-2.3,3.7-2.3c0.1,0,0.2,0,0.3,0C87.9,66.1,88,66.1,88.1,66.1
			 M131,66.1c4.5,0,7.9,2.9,7.9,7.6c0,4.3-3.5,7.3-7.9,7.3c-4.4,0-7.9-3-7.9-7.3C123.1,69.1,126.5,66.1,131,66.1 M131,77.6
			c1,0,1.9-0.3,1.9-4.1c0-1.4,0-3.9-1.9-3.9c-1.9,0-1.9,2.4-1.9,3.9C129.1,77.3,130,77.6,131,77.6 M64.6,66.2v8.7
			c0,0.9-0.1,1.9,1.2,1.9c0.5,0,1-0.3,1.3-0.8c0.2-0.5,0.3-1,0.3-1.5v-8.2h5.5v14.3l-5.1-0.1v-2.3h-0.1c-0.5,1.8-2.5,2.6-4.3,2.6
			c-1.2,0-2.3-0.3-3.2-1.1c-0.8-1-1.2-2.3-1.1-3.6v-9.9H64.6 M103.8,66.3v14.3h-5.5V66.3H103.8 M71.6,17.6h-5.5c-1.6,0-3,0.4-4.3,1
			c-1.1-0.4-2.2-0.6-3.4-0.6c-0.1,0-0.3,0-0.4,0l-4.8,0.2c-3.4,0.1-6.4,2-8.1,4.8c-1.4-0.4-2.9-0.6-4.4-0.6c-0.1,0-0.2,0-0.3,0l0,0
			c0,0,0,0,0,0c-3.3,0-6.5,0.9-9.1,2.6c-2.9-1.6-6.1-2.4-9.4-2.4c-0.3,0-0.5,0-0.8,0C10.6,22.7,5.5,29,4.1,34.9
			c-0.3,1.3-0.3,2.7-0.1,4c-0.4,1.4-0.7,2.8-0.7,4.3C3.4,51,9.3,57,17.3,57.5c-1.7,2.4-2.7,5.3-2.7,8.5c0,0.1,0,0.1,0,0.2
			c-2.5,3.4-2.9,7-2.9,8.9c0,9.2,7.4,15.9,17.7,15.9c1.1,0,3.1-0.1,5.3-0.7c1.4,0.4,2.8,0.6,4.3,0.6c0.2,0,0.5,0,0.7,0
			c1.5,0,2.9-0.2,4.4-0.6c3.3-0.8,5.8-3.2,7-6.3c0.4,0.7,0.8,1.3,1.3,1.9c0.4,0.4,0.7,0.9,1.2,1.2c1.9,1.7,5.1,3.6,9.8,3.6
			c1.2,0,2.3-0.1,3.4-0.4c0.3,0,0.5,0,0.8,0l5.1,0.1c0.1,0,0.1,0,0.2,0c1,0,1.9-0.1,2.8-0.4c0.9,0.3,1.8,0.4,2.8,0.4H84
			c0.4,0,0.7,0,1.1-0.1c0.6,0.1,1.2,0.2,1.8,0.2h5.5c1.1,0,2.1-0.2,3.1-0.5c0.9,0.3,1.8,0.4,2.8,0.4h5.5c1.2,0,2.4-0.2,3.4-0.6
			c1.1,0.4,2.2,0.6,3.5,0.6h5.5c2.2,0,4.2-0.7,5.8-1.9c2.6,1.4,5.7,2.3,9,2.3c2.7,0,5.2-0.5,7.5-1.5c1.4,0.8,3.1,1.2,4.8,1.2h5.5
			c1.6,0,3.1-0.4,4.4-1c1.3,0.6,2.7,0.9,4.2,0.9h5.4c0.5,0,0.9,0,1.3-0.1c0.4,0.1,0.9,0.1,1.3,0.1h5.4c0.3,0,0.7,0,1,0
			c0.6,0.1,1.1,0.1,1.7,0.1h5.4c5.5,0,10-4.5,10-10v-9.4c0-2.2,0-6.8-3.6-10.7c-0.2-0.3-0.5-0.5-0.8-0.7c-1.3-1.2-2.8-2.1-4.4-2.7
			h4.2c5.5,0,10-4.5,10-10v-1.8c2.4-1.9,3.8-4.8,3.8-7.8v-5c0-5-3.8-9.3-8.8-9.9l-0.8-0.1c-0.3,0-0.5-0.1-0.8-0.1
			c-0.2,0-0.4,0-0.7,0c-1.2,0-2.4,0.1-3.4,0.4c-0.1,0-0.2,0-0.2,0h-4.7c-1.7,0-3.2,0.4-4.6,1.1c-2.3-0.9-4.7-1.3-7.1-1.3
			c-0.3,0-0.5,0-0.8,0c-3.9,0-7.1,0.9-9.6,2.4c-2.7-1.7-6.1-2.7-9.8-2.7c-2.5,0-4.9,0.5-7.1,1.4c-1.3-0.6-2.6-0.9-4-0.9h-3.9
			c-0.6,0-1.3,0.1-1.9,0.2c-0.6-0.1-1.3-0.2-1.9-0.2H124c-0.6,0-1.2,0.1-1.8,0.2c-0.6-0.1-1.2-0.2-1.8-0.2h-5.5
			c-1.5,0-2.9,0.3-4.2,0.9c-2.2-0.9-4.7-1.4-7.3-1.4c-2.6,0-5.1,0.5-7.4,1.5c-1.3-0.6-2.8-1-4.3-1h-4c-0.8,0-1.6,0.1-2.4,0.3
			c-0.9-0.2-1.8-0.4-2.7-0.4h-2.2C78.6,19.7,75.3,17.6,71.6,17.6L71.6,17.6z M134.7,56.5c1-0.4,2-1,2.9-1.7c1.3,0.7,2.7,1.3,4.2,1.7
			c-1.2,0.2-2.3,0.6-3.3,1.1C137.3,57.1,136.1,56.7,134.7,56.5L134.7,56.5z M43.8,56.9c2-0.4,3.8-1,5.5-2c1.7,1.1,3.5,1.9,5.5,2.3
			c-2.7,1.3-4.7,3.7-5.4,6.6c-0.9-1.1-2-1.9-3.2-2.5C45.7,59.7,44.9,58.2,43.8,56.9L43.8,56.9z M153.6,56.1c0.7-0.2,1.3-0.5,1.9-0.8
			c0.6,0.4,1.2,0.7,1.9,1c-0.7,0-1.3,0.1-2,0.2c-0.5-0.1-1-0.3-1.6-0.3L153.6,56.1L153.6,56.1z M75,56.5c0.7-0.2,1.3-0.6,1.9-0.9
			c0.5,0.3,1.1,0.6,1.7,0.8h-0.1c-0.9,0-1.8,0.1-2.6,0.3C75.6,56.7,75.3,56.6,75,56.5L75,56.5z"/>
	</g>
	<g id="from">
		<path class="st1" d="M41.6,119.5c-2.5,0-4.6-0.9-5.9-2.7c-1.1-1.5-1.5-3.4-1.1-5.2c0.5-2.5,2.2-4.3,4.5-4.9
			c0.1-0.6,0.2-1.1,0.2-1.4c0.1-0.5,0.1-0.9,0.2-1.4c-0.4-0.8-0.6-1.8-0.6-2.8l0.1-1.1c0.2-2,1.5-3.6,3.3-4.2
			c2.9-4.8,6.9-5.4,8.6-5.4c2.3,0,4.3,0.9,5.7,2.5c0.6,0.7,1,1.5,1.3,2.3c1.2,0,2.3,0.3,3.2,0.7c1.2-0.5,2.5-0.7,3.9-0.7
			c1.9,0,3.4,0.4,4.6,1c1.3-0.8,2.6-1.1,3.9-1.1c1,0,1.9,0.2,2.8,0.5c0.9-0.3,1.9-0.5,2.8-0.5c1,0,1.9,0.2,2.8,0.5
			c0.9-0.3,1.8-0.5,2.8-0.5c3.3,0,5.1,1.7,5.8,2.7c1.4,1.8,1.6,3.9,1.4,5.5c0.8,1,1.1,2.2,1,3.5c-0.5,5.4-3.9,8.9-8.5,8.9
			c-1.3,0-2.4-0.3-3.3-0.7c-0.5,0.2-1.1,0.3-1.6,0.3c-0.1,0-0.3,0-0.5,0c-0.4,0-1-0.1-1.3-0.1c-0.2,0-0.8,0-1.2,0.1
			c-0.2,0-0.3,0-0.5,0c-0.3,0-0.6,0-0.9-0.1c-0.4,0.1-0.9,0.2-1.3,0.2c-0.2,0-0.3,0-0.5,0c-0.4,0-0.9-0.1-1.1-0.1s-0.8,0-1.1,0.1
			c-0.2,0-0.3,0-0.5,0c-0.9,0-1.8-0.3-2.6-0.7c-1.4,0.7-3,1.1-4.8,1.1c-2.8,0-4.7-0.9-5.9-1.9c-0.9,0.8-2.1,1.3-3.4,1.3H51
			c-0.5,0-1-0.1-1.4-0.2C47.9,117.6,45.3,119.5,41.6,119.5z M76.1,104.5L76.1,104.5z"/>
		<path class="st2" d="M51,95.4c1.7,0,2.5,1,2.3,2.3c0,1-0.8,1.8-1.8,1.8c-0.1,0-0.3,0-0.4,0c-0.6-0.1-1-0.7-0.9-1.3
			c0-0.1,0.1-0.2,0.1-0.3c0.2-0.6,0.8-0.9,1.3-0.9c0.2,0,0.4,0,0.6,0.1c-0.1-0.4-0.6-0.7-1.1-0.7c-1.2,0-1.9,1.1-2.5,4h1.9l-0.2,1.1
			h-1.9l-0.1,1c-1.3,8.9-3.5,12-6.7,12c-1.6,0-2.4-0.8-2.1-1.9c0.1-0.7,0.6-1.1,1.3-1.1c0,0,0.1,0,0.1,0c0.1,0,0.2,0,0.3,0
			c0.5,0.2,0.8,0.7,0.6,1.2c-0.2,0.5-0.7,0.8-1.2,0.8c-0.1,0-0.2,0-0.2,0c0.2,0.2,0.5,0.2,0.7,0.2c1.9,0,2.4-2.2,3.2-7.7
			c0.2-1.5,0.6-2.9,1-4.4H44l0.1-1.1l1.5,0.1C47.2,96.4,49.4,95.4,51,95.4 M84.8,100.1c2,0,2.8,1.2,2,4.3l-0.7,2.8
			c-0.4,1.5-0.4,2,0.1,2s0.9-1.2,1.1-2.9h0.8c-0.2,2.2-1.2,4.4-3.5,4.4c-2.2,0-2.7-1.6-2-4l0.6-2.3c0.6-2.2,0.3-2.7-0.2-2.7
			c-0.8,0-1.5,0.8-2.3,4v0.1l-1,4.5c0,0-1.1-0.1-1.7-0.1s-1.7,0.1-1.7,0.1c0.3-1.4,1.1-4.5,1.4-5.9c0.4-2.1,0.3-2.7-0.3-2.7
			c-0.8,0-1.7,1.1-2.5,4.8l-0.8,3.9c0,0-1-0.1-1.6-0.1s-1.6,0.1-1.6,0.1c0.4-1.6,1.1-5,1.4-6.6c0.3-1.6,0.4-2,0-2
			c-0.7,0-1.1,1.2-1.3,2.9l-0.7-0.2c0.3-2.1,1.2-4.4,3.3-4.4c1.5,0,2.1,0.9,2.1,2.4c0.6-1.4,2-2.4,3.5-2.4c1.4,0,2.2,0.6,2.2,2.2
			C82,101,83.3,100.1,84.8,100.1 M53.7,100.1c1,0,1.8,0.9,1.8,1.9c0.4-1,1.4-1.8,2.5-1.8c1.3,0,2,0.8,1.8,2.4
			c-0.2,1.5-0.9,2.1-1.9,2.1c-0.1,0-0.2,0.1-0.2,0.1s-0.2,0-0.2-0.1c-0.6-0.2-1-0.9-0.8-1.6c0.2-0.7,0.9-1.2,1.6-1.2
			c0.1,0,0.1,0,0.2,0c-0.1-0.4-0.4-0.6-0.8-0.6c-0.8,0-1.7,0.6-2.2,3c-0.2,1.1-1.1,5.2-1.2,5.9c0,0-1,0-1.6,0c-0.6,0-1.6,0-1.6,0
			c0.3-1.5,1-4.9,1.3-6.4c0.3-1.5,0.4-2.2,0-2.2c-0.7,0-1.1,1.2-1.3,2.9h-0.8c0.2-2.1,1.1-4.4,3.3-4.4
			C53.6,100.1,53.6,100.1,53.7,100.1 M65.1,100.2c2.7,0,4.3,1.4,4,4.5c-0.2,3.3-2.1,6.1-5.6,6.1c-2.8,0-4.3-1.6-4-4.8
			C59.9,102.8,61.9,100.2,65.1,100.2 M63.5,109.3c1,0,1.8-1.9,2.2-5.2c0.3-2,0-2.4-0.7-2.4c-1,0-1.7,1.7-2.2,4.9
			C62.5,108.7,62.8,109.3,63.5,109.3 M51,85.4c-3.3,0-6.4,1.1-9,3.3c-1.1,0.9-2.1,2-3,3.3c-2.6,1.6-4.5,4.4-4.8,7.7l-0.1,1.1
			c-0.1,1,0,1.9,0.2,2.9c-2.3,1.6-3.9,4.1-4.5,7c-0.7,3.3,0,6.7,2,9.3c2.2,2.9,5.8,4.6,9.9,4.6c3.9,0,7.4-1.5,10.2-4.3h0.8h1.6
			c1.2,0,2.3-0.2,3.4-0.6c1.8,0.8,3.8,1.2,5.9,1.2c1.7,0,3.3-0.3,4.8-0.7c0.8,0.2,1.7,0.3,2.6,0.3c0.3,0,0.7,0,1,0
			c0.2,0,0.4,0,0.6,0c0.2,0,0.4,0,0.6,0c0.3,0,0.7,0,1,0c0.5,0,1,0,1.5-0.1c0.2,0,0.4,0,0.6,0c0.3,0,0.6,0,0.9,0
			c0.3,0,0.6,0,0.8-0.1c0.2,0,0.5,0,0.8,0.1c0.3,0,0.6,0,0.9,0c0.4,0,0.9,0,1.3-0.1c1.1,0.3,2.3,0.5,3.6,0.5
			c7.2,0,12.7-5.5,13.5-13.5c0.2-1.8-0.2-3.6-1-5.3c-0.1-2.7-0.9-5.2-2.5-7.3c-2.3-3-5.8-4.6-9.8-4.6c-0.9,0-1.9,0.1-2.8,0.3
			c-0.9-0.2-1.8-0.3-2.8-0.3c-1,0-1.9,0.1-2.8,0.3c-0.9-0.2-1.8-0.3-2.8-0.3c-1.3,0-2.7,0.2-4.1,0.7c-1.4-0.4-2.8-0.6-4.4-0.6
			c-1.3,0-2.5,0.2-3.7,0.4c0,0,0,0-0.1,0c-0.2-0.4-0.5-0.7-0.8-1C58.2,86.9,54.8,85.4,51,85.4L51,85.4z M81,105.6
			C81,105.6,81,105.6,81,105.6L81,105.6L81,105.6z"/>
	</g>
	<g id="_">
		<path class="st1" d="M60.6,169.9c-2.8,0-5-2.2-5-5v-0.5c-6-2-10.3-6.6-11.8-12.8c-0.3-1.3-0.1-2.7,0.7-3.9
			c0.7-1.1,1.9-1.9,3.3-2.2h0.1c-1.5-2.1-2.5-4.8-2.5-8.3c0-6.7,4-12.2,10.2-14.5v-0.5c0-2.8,2.2-5,5-5h5c2.8,0,5,2.2,5,5v0.3
			c6.4,2.1,9.4,6.6,10.7,10.4c0.5,1.3,0.4,2.7-0.2,3.9c-0.5,1.1-1.4,1.9-2.5,2.4c2.6,2.7,4.1,6.4,4,10.3c0,7.2-4.6,12.7-11.9,15v0.5
			c0,2.8-2.2,5-5,5L60.6,169.9L60.6,169.9z"/>
		<path class="st2" d="M65.6,122.1v4.3h0.1c5.1,0.6,9.1,3,10.9,8.1l-8.2,2.6c-0.9-2.4-2.6-3.3-5.1-3.3c-1.4,0-3.2,0.4-3.2,2.1
			c0,1.7,2.3,2,3.6,2.3c3.1,0.7,6.5,1.2,9.3,2.8c2.9,1.8,4.6,4.9,4.5,8.3c0,6.8-5.7,10.3-11.8,11l-0.1,0.1v4.5h-5v-4.6
			c-5.8-0.6-10.5-4.1-11.9-9.9l9.1-1.7c0.8,2.9,2.9,4,5.8,4c1.3,0,3.8-0.2,3.8-2c0-2-2.4-2.4-3.9-2.7c-6.2-1.2-13.2-3-13.2-10.8
			c0-6,4.6-9.9,10.2-10.6l0,0v-4.4h5.1 M65.6,112.1h-5c-4.5,0-8.3,3-9.6,7.1c-6.5,3.5-10.6,10.1-10.6,17.9c0,2.3,0.3,4.5,1,6.5
			c-0.4,0.4-0.7,0.9-1,1.3c-1.5,2.3-2,5.1-1.4,7.7c1.6,6.8,6,12.2,12.1,15.2c1.3,4.1,5.1,7,9.6,7h5c4.4,0,8.2-2.9,9.5-6.9
			c7.6-3.5,12.3-10.2,12.4-18.5c0.1-3.5-0.8-6.8-2.4-9.8c0.2-0.2,0.3-0.5,0.4-0.8c1.2-2.4,1.4-5.3,0.5-7.8c-2-5.7-5.8-9.9-11-12.3
			C73.7,114.9,70,112.1,65.6,112.1L65.6,112.1z"/>
	</g>
	<g id="_5">
		<path class="st1" d="M119.2,185.3c-17.4,0-30.3-9.9-32.9-25.2c-0.2-1.3,0.1-2.7,0.9-3.8s2-1.8,3.4-2l1.1-0.1
			c-1.4-1-2.3-2.7-2.1-4.5l3-39.4c0.2-2.6,2.4-4.6,5-4.6h45.7c1.4,0,2.8,0.6,3.7,1.7s1.4,2.5,1.3,3.9l-1.8,16.9
			c-0.3,2.5-2.4,4.5-5,4.5h-2.6c1.6,1,3.2,2.1,4.6,3.4c0.1,0.1,0.1,0.1,0.2,0.2c5.2,5.3,8.1,12.5,7.9,19.9
			C151.5,173,137.9,185.3,119.2,185.3z M113.7,155.9c0,0.1,0,0.2,0.1,0.3c0.5,3,3.3,3.4,4.9,3.4c0.1,0,0.4,0,0.4,0
			c1.6-0.1,2.9-1.4,2.8-3c0-0.1,0-0.1,0-0.2c0-2.8-2-3.4-3.6-3.4h-0.2c-1.4,0-2.7,0.7-3.5,1.9C114.3,155.3,114,155.6,113.7,155.9z"
			/>
		<path class="st2" d="M143.2,110.6l-1.8,16.9h-28.7l-0.9,9.7c3.7-2.5,8-3.8,12.4-3.8c5.8,0.1,11.4,2.3,15.8,6.2
			c4.3,4.3,6.6,10.2,6.5,16.3c0,15.5-12.9,24.3-27.4,24.3c-13.5,0-25.6-7-28-21l17.7-2.2c0.9,4.9,5,7.5,9.8,7.5c0.1,0,0.2,0,0.3,0
			c0.1,0,0.2,0,0.3,0c4.4-0.2,7.8-3.8,7.6-8.2c0-5.1-3.6-8.4-8.6-8.4c-0.1,0-0.2,0-0.2,0c-3.1,0-6.1,1.6-7.7,4.3L94.5,150l3-39.4
			L143.2,110.6 M141.4,127.5L141.4,127.5L141.4,127.5 M143.2,100.6H97.5c-5.2,0-9.6,4-10,9.2l-3,39.4c-0.1,0.8,0,1.6,0.1,2.4
			c-0.5,0.5-1,1-1.5,1.6c-1.6,2.2-2.3,5-1.8,7.6c1.6,9.3,6.4,17,13.9,22.3c6.6,4.6,14.9,7.1,23.9,7.1c9.7,0,18.7-3.1,25.5-8.6
			c7.6-6.3,11.9-15.4,11.9-25.6c0.1-7.9-2.7-15.7-7.8-21.7c1.4-1.5,2.4-3.5,2.6-5.8l1.8-16.9c0.3-2.8-0.6-5.6-2.5-7.7
			C148.8,101.8,146.1,100.6,143.2,100.6L143.2,100.6z"/>
	</g>
</g>
<g id="shorts_dresses">
	<path class="st1" d="M241.6,86c-7.5,0-12.8-4.5-12.8-10.9c0-1.9,0.5-4.8,3.1-7.3c-0.1-0.5-0.2-1-0.2-1.5c0-0.1,0-0.2,0-0.4
		c0-5.9,4.5-9.8,11.3-9.8c6.3,0,10.7,3.7,11.1,9l0.5,0.1c1.4,0.2,2.7,0.9,3.5,2.1s1.1,2.6,0.8,4c-0.2,0.8-0.4,1.6-0.7,2.4
		c0.6,0.8,0.9,1.8,0.9,2.8v4.1c0,2.3-1.6,4.3-3.8,4.9c-1.2,0.3-2.3,0.4-3.4,0.4c-0.2,0-0.4,0-0.6,0c-1.5,0-2.9-0.3-4.3-0.8
		C244.9,85.9,242.7,86,241.6,86z M276.4,85.9c-0.1,0-0.3,0-0.4,0c-6.3-0.1-10.5-5-10.5-12.4c0-6.8,3.6-11.6,9.1-12.4
		c0.2-2.6,2.3-4.7,5-4.7h5.6c2.8,0,5,2.2,5,5v0c0.2,0,0.4,0,0.6,0h4.7c0.3,0,0.5,0,0.8,0.1c1.1-0.4,2.2-0.5,2.9-0.5
		c0.1,0,0.3,0,0.4,0c0.1,0,0.3,0,0.4,0l0.8,0.1c1.5,0.2,2.7,1,3.5,2.1c2.2-1.5,4.8-2.4,7.7-2.4c4,0,7.3,1.5,9.5,4
		c0.7-0.8,1.5-1.5,2.5-2c2-1.2,4.3-1.8,6.6-1.8c0.2,0,0.4,0,0.6,0c3.7,0,6.9,1.3,9,3.6c0.6-0.7,1.4-1.3,2.3-1.8
		c2-1.2,4.3-1.8,6.6-1.8c0.2,0,0.4,0,0.6,0c3.9,0,7.1,1.4,9.2,3.9c0.1-0.1,0.2-0.2,0.3-0.3c0,0,0.1-0.1,0.1-0.1
		c2.4-2.4,5.6-3.7,9.2-3.7c4,0,7.3,1.5,9.5,4c0.7-0.8,1.5-1.5,2.5-2c2-1.2,4.3-1.8,6.6-1.8c0.2,0,0.4,0,0.6,0
		c5.4,0,9.6,2.8,11.1,7.1c0.4,1.1,0.3,2.3-0.1,3.4c0.6,1.3,1,2.7,1,4.2c0,6-5,10.1-12.4,10.1c-4,0-7.2-1.2-9.4-3.5
		c-2.2,2.1-5.4,3.4-9,3.4c-0.2,0-0.3,0-0.5,0c-3.1,0-6.2-1.1-8.6-3c-0.1-0.1-0.2-0.1-0.3-0.2c-0.1-0.1-0.3-0.3-0.4-0.4
		c-2.2,2.4-5.7,3.7-10,3.7c-3.8,0-6.9-1.1-9.1-3.2c-2.2,2-5.5,3.2-9.4,3.2c-4,0-7.2-1.2-9.4-3.5c-2.2,2.1-5.4,3.4-9,3.4
		c-0.2,0-0.3,0-0.5,0c-3.1,0-6.2-1.1-8.6-3c-0.1-0.1-0.2-0.1-0.3-0.2c-0.6-0.6-1.2-1.2-1.7-2v0.1c0,2.8-2.2,5-5,5h-5.6
		c-1.1,0-2.1-0.3-2.9-0.9c-0.8,0.5-1.7,0.8-2.7,0.8H280c-0.3,0-0.6,0-1-0.1C278.2,85.8,277.3,85.9,276.4,85.9z M342.5,52.4
		c-2.8,0-5.3-1.1-7.1-3.2c-2.2-2.4-2.4-5.2-2.4-7c-0.2,0.1-0.3,0.1-0.5,0.2v4.7c0,2.8-2.2,5-5,5h-5.6c-1.8,0-3.4-1-4.3-2.4
		c-2.2,1.7-5,2.7-8.1,2.7c-3.2,0-6.2-1.1-8.4-2.9c-0.8,1.6-2.5,2.6-4.4,2.6h-5.6c-0.5,0-1-0.1-1.4-0.2c-0.5,0.1-0.9,0.2-1.5,0.2
		h-5.7c-1.6,0-3-0.7-3.9-1.9c-2.1,1.3-4.8,2.1-8,2.1c-6,0-10.3-2.8-11.9-7.7c-0.5-1.4-0.3-3,0.5-4.2c0.1-0.1,0.2-0.3,0.3-0.4
		c-0.2-0.8-0.3-1.7-0.3-2.7c0-3.4,1.8-6.5,4.7-8.1c2-1.2,4.3-1.8,6.6-1.8c0.2,0,0.4,0,0.6,0c2.4,0,4.6,0.6,6.4,1.6v-1.1
		c0-2.8,2.2-5,5-5h5.6c2.6,0,4.8,2,5,4.6c2.6,0.2,5,1.4,6.7,3.4c0.1,0.1,0.2,0.3,0.3,0.4c2.3-2.4,5.6-3.8,9.4-3.8c3.2,0,6,1,8.2,2.6
		c0.9-1.4,2.4-2.3,4.2-2.3h4.7c0.3,0,0.5,0,0.8,0.1c1.1-0.4,2.2-0.5,2.9-0.5c0.1,0,0.3,0,0.4,0c0.1,0,0.3,0,0.4,0l0.8,0.1
		c0.6,0.1,1.2,0.3,1.7,0.5l0-0.3c0.2-2.5,2.3-4.5,4.8-4.6l4.8-0.2c0.1,0,0.1,0,0.2,0c1.3,0,2.5,0.5,3.5,1.4c1,0.9,1.5,2.2,1.5,3.6
		v0.3c0.6,0.3,1.2,0.7,1.7,1.2c0.2-0.1,0.4-0.2,0.6-0.3c2-1.2,4.3-1.8,6.6-1.8c0.2,0,0.4,0,0.6,0c5.4,0,9.6,2.8,11.1,7.1
		c0.4,1.1,0.3,2.4-0.1,3.5c0.6,1.3,1,2.7,1,4.2c0,6-5,10.1-12.4,10.1c-2.9,0-5.5-0.7-7.5-1.9c-0.6,0.7-1.5,1.2-2.4,1.4
		C345.8,52.2,344.1,52.4,342.5,52.4z"/>
	<path class="st2" d="M288.1,27.9v6.6c1-1.3,2.5-2,4.1-2c0.1,0,0.2,0,0.3,0c1.3,0,2.6,0.6,3.4,1.6c0.7,1.3,0.9,2.7,0.8,4.1v8.9h-5.6
		v-8.9c0-1-0.1-1.8-1.3-1.8c-0.9,0-1.6,0.7-1.6,2.1v8.6h-5.6h-0.1V27.9H288.1 M343.4,28v4.8h2.9v3.6h-2.8v4.9c0,1-0.1,1.8,1.2,1.8
		c0.5,0,1.1,0,1.6-0.2v4c-1.2,0.3-2.5,0.5-3.8,0.5s-2.5-0.5-3.4-1.5c-1.1-1.2-1.1-2.6-1.1-4.1v-5.4h-2.1v-3.6h2.3l0.4-4.6L343.4,28
		 M357.2,32.4c0.2,0,0.3,0,0.5,0c2.7,0,5.6,1,6.5,3.7l-4.2,0.8c-0.5-0.7-1.3-1.2-2.2-1.2c-0.1,0-0.2,0-0.3,0c-1,0-1.8,0.4-1.8,0.8
		s0.4,0.7,0.8,0.7c0.8,0.1,1.6,0.2,2.4,0.3c1.4,0.1,2.7,0.5,3.9,1.1c1.3,0.7,2,2.1,2,3.6c0,4-4.2,5.1-7.4,5.1s-6.1-1-7.2-4.3
		l4.5-0.6c0.3,1.3,1.9,1.5,3.1,1.5c0.5,0,2.1-0.1,2.1-0.9c0-0.7-1.9-0.8-2.4-0.9c-3-0.4-6.6-1-6.6-4.8c0-1.6,0.8-3,2.2-3.8
		C354.4,32.8,355.8,32.4,357.2,32.4 M270.4,32.4c0.2,0,0.3,0,0.5,0c2.7,0,5.6,1,6.5,3.7l-4.2,0.8c-0.5-0.7-1.3-1.2-2.2-1.2
		c-0.1,0-0.2,0-0.3,0c-1,0-1.8,0.4-1.8,0.8s0.4,0.7,0.8,0.7c0.8,0.1,1.6,0.2,2.4,0.3c1.4,0.1,2.7,0.5,3.9,1.1c1.2,0.7,2,2.1,2,3.6
		c0,4-4.2,5.1-7.4,5.1s-6.1-1-7.2-4.3l4.5-0.6c0.3,1.3,1.9,1.5,3.1,1.5c0.5,0,2.1-0.1,2.1-0.9c0-0.7-1.9-0.8-2.4-0.9
		c-3-0.4-6.6-1-6.6-4.8c0-1.6,0.8-3,2.2-3.8C267.6,32.8,269,32.4,270.4,32.4 M330.3,32.4c0.1,0,0.2,0,0.2,0l0.8,0.1v5
		c-0.4-0.1-0.7-0.1-1.1-0.1c-0.1,0-0.2,0-0.3,0c-0.8,0-1.6,0.4-2,1c-0.3,0.8-0.5,1.7-0.4,2.5v6.2h-5.6V32.8h4.7v2.9
		C327.1,33.8,328,32.4,330.3,32.4 M309.5,32.5c4.5,0,7.9,2.9,7.9,7.6c0,4.3-3.5,7.3-7.9,7.3s-7.9-3-7.9-7.3
		C301.6,35.5,305,32.5,309.5,32.5 M309.5,44c1,0,1.9-0.3,1.9-4.1c0-1.4,0-3.9-1.9-3.9s-1.9,2.5-1.9,3.9
		C307.6,43.7,308.5,44,309.5,44 M243,61.2c3,0,6.1,1.3,6.1,4.7c-0.1,2.2-1.6,4.1-3.7,4.7l2.1,2.2c0.8-0.9,1.3-2,1.5-3.2l5,0.6
		c-0.5,2.2-1.6,4.3-3.2,5.9c0.4,0.3,1,0.5,1.5,0.5c0.1,0,0.2,0,0.4,0c0.4,0,0.8,0,1.3-0.1v4.1c-0.8,0.2-1.5,0.3-2.3,0.3
		c-0.1,0-0.3,0-0.4,0c-1.5,0-3-0.5-4.2-1.5c-1.3,1.2-3.8,1.6-5.5,1.6c-3.8,0-7.8-1.7-7.8-5.9c0-2.9,2-4.4,4.5-5.3
		c-1-1.1-1.5-2.4-1.6-3.8C236.7,62.4,239.9,61.2,243,61.2 M243.2,67.8c0.8-0.2,1.4-1,1.4-1.8v-0.1c-0.1-0.8-0.7-1.3-1.5-1.3H243
		c-0.6,0-1.2,0.5-1.2,1.2C242,66.7,242.5,67.4,243.2,67.8 M241.7,76.8c0.1,0,0.1,0,0.2,0c0.8,0,1.6-0.3,2.2-0.8l-3.2-3.5
		c-0.9,0.4-1.5,1.3-1.4,2.3C239.6,75.9,240.6,76.8,241.7,76.8 M285.2,61.4v19.2H280v-1.9h-0.1c-0.7,1.4-2,2.2-3.5,2.2
		c-0.1,0-0.2,0-0.3,0c-4.2,0-5.6-3.9-5.6-7.4c0-3.7,1.4-7.5,5.7-7.5c1.3,0,2.5,0.6,3.4,1.5v-6.1H285.2 M278.1,77.1
		c0.5,0,1-0.2,1.2-0.7c0.3-0.5,0.4-1.2,0.3-1.8h0.1v-2.9c0.1-0.6,0-1.2-0.3-1.7c-0.3-0.4-0.7-0.6-1.2-0.6c-0.9,0-1.6,0.7-1.6,1.5
		c-0.2,0.9-0.3,1.8-0.3,2.7C276.3,74.9,276.4,77.1,278.1,77.1 M368.6,65.9c4.8,0,7.7,3.1,7.7,7.8v0.8h-9.6c0,1.6,0.5,2.7,2.2,2.7
		h0.1c0.1,0,0.1,0,0.2,0c1,0,1.8-0.7,1.9-1.7l5.2,0.2c-0.9,3.5-4,5.1-7.4,5.1c-0.1,0-0.3,0-0.4,0c-2,0-3.9-0.7-5.4-1.9
		c-1.5-1.4-2.3-3.4-2.3-5.4s0.7-3.9,2.1-5.4C364.4,66.6,366.5,65.9,368.6,65.9 M366.7,71.8h4c0-1.4-0.4-2.5-2-2.5
		C367.2,69.3,366.7,70.5,366.7,71.8 M312,65.9c4.8,0,7.7,3.1,7.7,7.8v0.8h-9.6c0,1.6,0.5,2.7,2.2,2.7h0.1c0.1,0,0.1,0,0.2,0
		c1,0,1.8-0.7,1.9-1.7l5.2,0.2c-0.9,3.5-4,5.1-7.4,5.1c-0.1,0-0.3,0-0.4,0c-2,0-3.9-0.7-5.4-1.9c-1.5-1.4-2.3-3.4-2.3-5.4
		s0.7-3.9,2.1-5.4C307.8,66.6,309.9,65.9,312,65.9 M310.1,71.8h4c0-1.4-0.4-2.5-2-2.5C310.6,69.3,310.1,70.5,310.1,71.8 M299.2,66
		c0.1,0,0.2,0,0.2,0l0.8,0.1v5c-0.4-0.1-0.7-0.1-1.1-0.1c-0.1,0-0.2,0-0.3,0c-0.8,0-1.6,0.4-2,1c-0.3,0.8-0.5,1.7-0.4,2.5v6.2h-5.6
		V66.4h4.7v2.9C296,67.4,296.9,66,299.2,66 M387.2,66.1c0.2,0,0.3,0,0.5,0c2.7,0,5.6,1,6.5,3.7l-4.2,0.8c-0.5-0.8-1.3-1.3-2.2-1.3
		c-0.1,0-0.2,0-0.3,0c-1,0-1.8,0.4-1.8,0.8c0,0.4,0.4,0.7,0.8,0.7c0.8,0.1,1.6,0.2,2.4,0.3c1.4,0.1,2.7,0.5,3.9,1.1
		c1.3,0.7,2,2.1,2,3.6c0,4-4.2,5.1-7.4,5.1s-6.1-1-7.2-4.3l4.5-0.5c0.3,1.3,1.9,1.5,3.1,1.5c0.5,0,2.1-0.1,2.1-0.9
		c0-0.7-1.9-0.8-2.4-0.9c-3-0.4-6.6-1-6.6-4.8c0-1.6,0.8-3,2.2-3.8C384.4,66.5,385.8,66.1,387.2,66.1 M349.1,66.1c0.2,0,0.3,0,0.5,0
		c2.7,0,5.5,1,6.5,3.7l-4.2,0.8c-0.5-0.8-1.3-1.3-2.2-1.3c-0.1,0-0.2,0-0.3,0c-1,0-1.8,0.4-1.8,0.8c0,0.4,0.4,0.7,0.8,0.7
		c0.8,0.1,1.6,0.2,2.4,0.3c1.4,0.1,2.7,0.5,3.9,1.1c1.3,0.7,2,2.1,2,3.6c0,4-4.2,5.1-7.4,5.1s-6.1-1-7.2-4.3l4.5-0.5
		c0.3,1.3,1.9,1.5,3.1,1.5c0.5,0,2.1-0.1,2.1-0.9c0-0.7-1.9-0.8-2.4-0.9c-3-0.4-6.6-1-6.6-4.8c0-1.6,0.8-3,2.2-3.8
		C346.3,66.5,347.7,66.1,349.1,66.1 M330.6,66.1c0.2,0,0.3,0,0.5,0c2.7,0,5.6,1,6.5,3.7l-4.2,0.8c-0.5-0.8-1.3-1.3-2.2-1.3
		c-0.1,0-0.2,0-0.3,0c-1,0-1.8,0.4-1.8,0.8c0,0.4,0.4,0.7,0.8,0.7c0.8,0.1,1.6,0.2,2.4,0.3c1.4,0.1,2.7,0.5,3.9,1.1
		c1.3,0.7,2,2.1,2,3.6c0,4-4.2,5.1-7.4,5.1s-6.1-1-7.2-4.3l4.5-0.5c0.3,1.3,1.9,1.5,3.1,1.5c0.5,0,2.1-0.1,2.1-0.9
		c0-0.7-1.9-0.8-2.4-0.9c-3-0.4-6.6-1-6.6-4.8c0-1.6,0.8-3,2.2-3.8C327.8,66.5,329.2,66.1,330.6,66.1 M288.1,17.9h-5.6
		c-3.6,0-6.7,1.9-8.5,4.7c-0.9-0.1-1.8-0.2-2.8-0.2c-0.3,0-0.5,0-0.8,0l0,0c0,0,0,0,0,0c-3.2,0-6.3,0.8-9.1,2.4
		c-4.5,2.6-7.2,7.3-7.2,12.5c0,0.6,0,1.2,0.1,1.8c-1,2.2-1.1,4.7-0.3,7.1c2.3,6.8,8.2,10.9,15.9,11.1c-3.3,1.4-5.9,4-7.5,7.4
		c-0.1-0.1-0.1-0.2-0.2-0.3c-1-1.4-2.3-2.5-3.8-3.2c-2-6-7.8-10-15.4-10c-9.4,0-16.3,6.2-16.3,14.8c0,0.1,0,0.1,0,0.2
		c-2.5,3.4-2.9,7-2.9,8.9c0,9.2,7.5,15.9,17.8,15.9c1.1,0,3.1-0.1,5.3-0.7c1.4,0.4,2.9,0.6,4.4,0.6c0.2,0,0.5,0,0.7,0
		c1.5,0,2.9-0.2,4.4-0.6c3.3-0.8,5.9-3.2,7-6.3c2.7,4.2,7.1,6.8,12.4,6.9c0.2,0,0.4,0,0.6,0c1,0,2.1-0.1,3-0.3c0.2,0,0.4,0,0.6,0
		h5.2c0.9,0,1.8-0.1,2.6-0.3c0.9,0.3,1.9,0.4,3,0.4h5.6c2.4,0,4.6-0.9,6.4-2.3c2.8,1.6,5.9,2.4,9.1,2.4c0.2,0,0.4,0,0.6,0
		c3.3,0,6.3-0.8,8.8-2.2c2.7,1.5,5.9,2.3,9.5,2.3c3.6,0,6.8-0.8,9.4-2.1c2.6,1.4,5.7,2.1,9.1,2.1c3.9,0,7.3-0.9,10.1-2.5
		c2.8,1.6,5.9,2.4,9.1,2.4c0.2,0,0.4,0,0.6,0c3.3,0,6.3-0.8,8.8-2.2c2.7,1.5,5.9,2.3,9.5,2.3c10.2,0,17.4-6.2,17.4-15.1
		c0-1.6-0.2-3.1-0.7-4.5c0.2-1.5,0.1-3.1-0.4-4.7c-2.1-6.4-8.1-10.4-15.7-10.5c-0.3,0-0.5,0-0.8,0l0,0c0,0,0,0,0,0
		c-3.1,0-6.2,0.8-9,2.4c-2.7-1.7-6-2.6-9.6-2.6c-3.5,0-6.8,0.9-9.6,2.6c-0.8-0.5-1.7-0.9-2.7-1.3c0.4,0,0.7,0,1.1,0
		c10.2,0,17.4-6.2,17.4-15.1c0-1.6-0.3-3.1-0.7-4.5c0.2-1.6,0.1-3.2-0.4-4.7c-2.1-6.4-8.1-10.4-15.7-10.5c-0.3,0-0.5,0-0.8,0l0,0
		c0,0,0,0,0,0c-1.7,0-3.4,0.2-5.1,0.7c-0.5-0.9-1.1-1.6-1.8-2.3c-1.9-1.8-4.3-2.8-6.9-2.8c-0.1,0-0.3,0-0.4,0l-4.8,0.2
		c-3.2,0.1-6,1.7-7.7,4.2c-0.1,0-0.1,0-0.2,0c-1.1,0-2.2,0.1-3.4,0.4c-0.1,0-0.2,0-0.3,0h-4.7c-1.7,0-3.4,0.4-4.8,1.2
		c-2.3-1-4.8-1.5-7.6-1.5c-3.4,0-6.5,0.8-9.1,2.3c-1.1-0.7-2.2-1.2-3.4-1.6C295.2,20,291.9,17.9,288.1,17.9L288.1,17.9z M356.5,27.2
		C356.5,27.2,356.5,27.2,356.5,27.2L356.5,27.2L356.5,27.2z M269.7,27.2C269.7,27.2,269.7,27.2,269.7,27.2L269.7,27.2L269.7,27.2z
		 M331.8,56.1c0.8-0.4,1.5-0.9,2.2-1.4c2.4,1.7,5.3,2.7,8.3,2.7c-0.7,0.3-1.4,0.6-2.1,1C337.9,57,335,56.2,331.8,56.1L331.8,56.1z
		 M301,56.1c0.2-0.1,0.5-0.2,0.7-0.4c1.2,0.6,2.5,1,3.9,1.3c-0.2,0.1-0.5,0.2-0.7,0.3c-1-0.6-2.2-0.9-3.5-1.1L301,56.1L301,56.1z
		 M315.9,56.3c0.4-0.1,0.7-0.3,1.1-0.4c1.4,0.8,3.1,1.3,4.9,1.3h2.8c-1.1,0.4-2.1,0.8-3.1,1.4C319.9,57.5,318,56.7,315.9,56.3
		L315.9,56.3z M350.2,56.1C350.2,56.1,350.3,56.1,350.2,56.1c0.1,0,0.1,0,0.2,0C350.3,56.1,350.3,56.1,350.2,56.1L350.2,56.1z
		 M386.5,60.8C386.5,60.8,386.5,60.8,386.5,60.8L386.5,60.8L386.5,60.8z M348.4,60.8C348.4,60.8,348.4,60.8,348.4,60.8L348.4,60.8
		L348.4,60.8z M329.9,60.8C329.9,60.8,329.9,60.8,329.9,60.8L329.9,60.8L329.9,60.8z"/>
</g>
<g id="_8">
	<path class="st1" d="M326.4,185.3c-5.5,0-13.3-0.7-19.8-4.3c-7.5-3.7-12.3-11.4-12.2-19.8c0-6.5,2.6-12.1,7.2-16.1
		c-3.3-3.8-5-8.8-5-14.4c0-7.8,3.8-15.3,10-19.9c5.6-4.1,12.8-6.2,21.4-6.2c14.5,0,30.1,7.3,30.1,23.2c0,6.3-2.2,10.5-5.3,13.7
		c5.1,4.4,7.7,10,7.7,17.1C360.4,175.1,347.4,185.3,326.4,185.3z M322.9,158.2c-0.4,0.5-0.7,0.9-0.7,1.4c0,2.3,4.7,2.4,5.2,2.4
		c1.5,0,2.5-0.3,3-0.5c-0.5-0.4-1.7-1.1-3.7-1.9L322.9,158.2z M325.1,128.4c0.6,0.5,2.3,1.3,3.1,1.6l2.3,0.9
		c0.1-0.2,0.1-0.4,0.1-0.7c0-2.1-3.3-2.2-3.9-2.2C326,128.1,325.4,128.3,325.1,128.4z"/>
	<path class="st2" d="M328,109.6c11.2,0,25.1,4.9,25.1,18.2c0,7-3.3,10.5-8.8,14.1c7,3.6,11.1,8.6,11.1,16.7
		c0,16.3-15,21.6-29.1,21.6c-5.8,0-12.4-0.9-17.5-3.7c-5.9-2.9-9.6-8.8-9.5-15.3c0-7.4,4.1-12.7,10.8-15.5c-5.8-3.2-8.6-8.5-8.6-15
		c0-6.3,3-12.2,8-15.9C314.9,110.9,321.5,109.6,328,109.6 M331.4,136.7c2.6-1.1,4.3-3.6,4.3-6.4c0-5-4.5-7.2-8.9-7.2
		c-3.3,0-6.7,1.5-6.7,5.2c0,3.6,3.4,5.1,6.2,6.3L331.4,136.7 M327.5,167.1c3.4,0,8.2-1.1,8.2-5.3c0-3.8-4-5.5-7-6.7l-6.6-2.5
		c-2.6,1.5-4.8,4-4.8,7.1C317.3,165.3,322.9,167.1,327.5,167.1 M328,99.6c-9.7,0-17.9,2.4-24.3,7.1c-7.6,5.6-12.1,14.6-12.1,24
		c0,5.2,1.2,9.9,3.5,13.9c-3.7,4.5-5.7,10.2-5.7,16.6c0,10.2,5.8,19.6,14.9,24.2c7.4,4,16.1,4.8,22.1,4.8
		c23.7,0,39.1-12.4,39.1-31.6c0-6.8-2-12.6-6-17.4c2.2-3.4,3.7-7.8,3.7-13.4c0-9.6-4.7-17.6-13.3-22.7
		C341.7,100.3,332.7,99.6,328,99.6L328,99.6z M326.7,133.1L326.7,133.1L326.7,133.1L326.7,133.1z"/>
</g>
<g id="from-2">
	<path class="st1" d="M254.8,119.5c-2.3,0-4.4-0.9-5.7-2.4c-1.2-1.4-1.7-3.3-1.4-5.3c0.4-2.6,2.2-4.5,4.6-5.1
		c0.1-0.6,0.2-1.1,0.2-1.4c0.1-0.5,0.1-0.9,0.2-1.4c-0.5-1-0.7-2.1-0.5-3.2l0.2-1.1c0.3-1.8,1.6-3.2,3.2-3.8
		c2.9-4.8,6.9-5.4,8.6-5.4c2.3,0,4.3,0.9,5.7,2.5c0.6,0.7,1,1.5,1.3,2.3c1.2,0,2.3,0.3,3.2,0.7c1.2-0.5,2.5-0.7,3.9-0.7
		c1.9,0,3.4,0.4,4.6,1c1.2-0.7,2.5-1.1,4-1.1c1,0,1.9,0.2,2.8,0.5c0.9-0.3,1.9-0.5,2.8-0.5c1,0,1.9,0.2,2.8,0.5
		c0.9-0.3,1.8-0.5,2.8-0.5c3.2,0,5,1.6,5.7,2.6c1.4,1.8,1.6,3.9,1.4,5.5c0.8,1,1.1,2.2,1,3.5c-0.5,5.4-3.9,8.9-8.5,8.9
		c-1.3,0-2.4-0.3-3.3-0.7c-0.5,0.2-1.1,0.3-1.6,0.3c-0.1,0-0.3,0-0.5,0c-0.4,0-1-0.1-1.3-0.1c-0.2,0-0.8,0-1.2,0.1
		c-0.2,0-0.3,0-0.5,0c-0.3,0-0.5,0-0.8-0.1c-0.4,0.1-0.8,0.2-1.3,0.2c-0.2,0-0.3,0-0.5,0c-0.4,0-0.9-0.1-1.1-0.1
		c-0.4,0-1.1,0.1-1.1,0.1c-0.2,0-0.3,0-0.5,0c-0.9,0-1.8-0.3-2.6-0.8c-1.4,0.7-3.1,1.2-4.8,1.2c-2.8,0-4.7-0.9-5.9-2
		c-0.9,0.8-2.1,1.4-3.4,1.4h-3.2c-0.5,0-1-0.1-1.5-0.2C261.1,117.6,258.6,119.5,254.8,119.5z"/>
	<path class="st2" d="M264.3,95.4c1.7,0,2.5,1,2.3,2.3c0,1-0.8,1.8-1.8,1.8c-0.1,0-0.3,0-0.4,0c-0.6-0.1-1-0.7-0.9-1.3
		c0-0.1,0.1-0.2,0.1-0.3c0.2-0.6,0.8-0.9,1.3-0.9c0.2,0,0.4,0,0.6,0.1c-0.1-0.4-0.6-0.7-1.1-0.7c-1.2,0-1.9,1.1-2.6,4h2l-0.2,1.1
		h-1.9l-0.2,1c-1.2,8.9-3.5,12-6.7,12c-1.6,0-2.3-0.8-2.1-1.9c0.1-0.7,0.6-1.1,1.3-1.1c0,0,0.1,0,0.1,0c0.1,0,0.2,0,0.3,0
		c0.5,0.2,0.8,0.7,0.6,1.2c-0.2,0.5-0.7,0.8-1.2,0.8c-0.1,0-0.2,0-0.2,0c0.2,0.2,0.5,0.2,0.7,0.2c1.9,0,2.4-2.2,3.2-7.7
		c0.2-1.5,0.6-3,1-4.4h-1.3l0.2-1.1l1.5,0.1C260.5,96.4,262.7,95.4,264.3,95.4 M298.2,100.1c1.9,0,2.7,1.2,1.9,4.3l-0.7,2.8
		c-0.4,1.5-0.4,2,0.1,2s0.9-1.2,1.1-2.9h0.8c-0.2,2.2-1.2,4.4-3.5,4.4c-2.2,0-2.7-1.6-2-4l0.6-2.3c0.6-2.2,0.3-2.7-0.2-2.7
		c-0.8,0-1.5,0.8-2.3,4v0.1l-1,4.5c0,0-1.1-0.1-1.7-0.1s-1.7,0.1-1.7,0.1c0.3-1.4,1.1-4.5,1.4-5.9c0.5-2.1,0.4-2.7-0.2-2.7
		c-0.8,0-1.7,1.1-2.5,4.8l-0.8,3.9c0,0-1-0.1-1.6-0.1c-0.5,0-1.6,0.1-1.6,0.1c0.4-1.6,1.1-5,1.4-6.6c0.3-1.6,0.4-2,0-2
		c-0.7,0-1.1,1.2-1.3,2.9l-0.7-0.2c0.2-2.1,1.2-4.4,3.3-4.4c1.5,0,2.1,0.9,2.1,2.4c0.6-1.4,2-2.4,3.5-2.4c1.4,0,2.2,0.6,2.2,2.2
		C295.4,101,296.7,100.1,298.2,100.1 M267,100.1c1,0.1,1.8,0.9,1.8,1.9c0.4-1,1.4-1.8,2.5-1.8c1.3,0,2,0.8,1.8,2.4
		c-0.2,1.5-0.9,2.1-1.9,2.1c-0.1,0-0.1,0-0.2,0c-0.1,0-0.2,0-0.3,0c-0.6-0.2-1-0.9-0.8-1.6c0.3-0.7,1-1.2,1.6-1.2c0.1,0,0.1,0,0.2,0
		c-0.1-0.4-0.4-0.6-0.8-0.6c-0.8,0-1.7,0.6-2.2,3c-0.2,1.1-1.1,5.2-1.2,5.9c0,0-1,0-1.6,0c-0.5,0-1.6,0-1.6,0c0.3-1.5,1-4.9,1.3-6.4
		c0.2-1.5,0.4-2.2,0-2.2c-0.6,0-1.1,1.2-1.3,2.9h-0.8c0.2-2.1,1.1-4.4,3.3-4.4C266.9,100.1,266.9,100.1,267,100.1 M278.4,100.2
		c2.7,0,4.3,1.4,4,4.5c-0.2,3.3-2.1,6.1-5.6,6.1c-2.7,0-4.3-1.6-4-4.8C273.2,102.8,275.2,100.2,278.4,100.2 M276.9,109.3
		c0.9,0,1.7-1.9,2.2-5.2c0.3-2,0-2.4-0.7-2.4c-1,0-1.7,1.7-2.2,4.9C275.9,108.7,276.2,109.3,276.9,109.3 M264.3,85.4
		c-3.3,0-6.4,1.1-9,3.3c-1.1,0.9-2.1,2-3,3.3c-2.4,1.4-4.2,3.9-4.7,6.8l-0.2,1.1c-0.2,1.3-0.2,2.5,0,3.8c-2.4,1.7-4.1,4.3-4.6,7.4
		c-0.6,3.3,0.3,6.7,2.5,9.3c2.3,2.7,5.7,4.2,9.5,4.2c3.9,0,7.4-1.5,10.2-4.3h0.9h1.6c1.2,0,2.3-0.2,3.4-0.6c1.8,0.8,3.8,1.2,5.9,1.2
		c1.7,0,3.3-0.3,4.9-0.8c0.9,0.2,1.7,0.4,2.6,0.4c0.3,0,0.6,0,0.9,0c0.2,0,0.5,0,0.7-0.1c0.2,0,0.4,0,0.6,0c0.3,0,0.7,0,1,0
		c0.5,0,1,0,1.5-0.1c0.2,0,0.4,0,0.6,0c0.3,0,0.6,0,0.9,0c0.3,0,0.6,0,0.8-0.1c0.2,0,0.5,0,0.8,0.1c0.3,0,0.6,0,0.9,0
		c0.4,0,0.9,0,1.3-0.1c1.1,0.3,2.3,0.5,3.6,0.5c7.2,0,12.7-5.5,13.5-13.5c0.2-1.8-0.2-3.6-1-5.3c-0.1-2.8-0.9-5.2-2.5-7.3
		c-2.3-2.9-5.7-4.6-9.7-4.6c-0.9,0-1.9,0.1-2.8,0.3c-0.9-0.2-1.8-0.3-2.8-0.3c-1,0-1.9,0.1-2.8,0.3c-0.9-0.2-1.8-0.3-2.8-0.3
		c-1.5,0-2.9,0.2-4.2,0.7c-1.4-0.4-2.9-0.6-4.4-0.6c-1.3,0-2.5,0.2-3.7,0.4c0,0,0,0-0.1,0c-0.2-0.4-0.5-0.7-0.8-1
		C271.5,86.9,268.1,85.4,264.3,85.4L264.3,85.4z M294.4,105.6L294.4,105.6L294.4,105.6L294.4,105.6z"/>
</g>
<g id="_2">
	<path class="st1" d="M274,169.9c-2.8,0-5-2.2-5-5v-0.5c-6-2-10.4-6.6-11.8-12.8c-0.3-1.3-0.1-2.7,0.7-3.9c0.7-1.1,1.9-1.9,3.3-2.2
		h0.1c-1.5-2.1-2.5-4.8-2.5-8.3c0-6.7,4-12.2,10.3-14.5v-0.5c0-2.8,2.2-5,5-5h5c2.8,0,5,2.2,5,5v0.3c6.4,2.1,9.4,6.6,10.7,10.4
		c0.5,1.3,0.4,2.7-0.2,3.9c-0.5,1.1-1.5,1.9-2.6,2.4c2.6,2.8,4.1,6.4,4,10.3c0,7.2-4.6,12.8-11.9,15v0.5c0,2.8-2.2,5-5,5L274,169.9
		L274,169.9z"/>
	<path class="st2" d="M279,122.1v4.3h0.1c5.2,0.6,9.1,3,10.9,8.1l-8.2,2.6c-0.9-2.4-2.7-3.3-5.2-3.3c-1.4,0-3.2,0.4-3.2,2.1
		c0,1.7,2.3,2,3.6,2.3c3.1,0.7,6.5,1.2,9.3,2.8c2.9,1.7,4.6,4.9,4.5,8.3c0,6.8-5.7,10.3-11.8,11l-0.1,0.1v4.5h-5v-4.6
		c-5.8-0.6-10.6-4.1-11.9-9.9l9.2-1.7c0.8,2.9,2.9,4,5.8,4c1.4,0,3.8-0.2,3.8-2c0-2-2.4-2.4-3.9-2.7c-6.2-1.2-13.2-3-13.2-10.8
		c0-6,4.6-9.9,10.3-10.6l0,0v-4.4h5 M279,112.1h-5c-4.5,0-8.3,3-9.6,7.1c-6.6,3.5-10.7,10.1-10.7,17.9c0,2.3,0.3,4.5,1,6.5
		c-0.4,0.4-0.7,0.9-1.1,1.3c-1.5,2.3-2,5.1-1.4,7.7c1.6,6.8,6,12.2,12.1,15.2c1.3,4.1,5.1,7,9.6,7h5c4.4,0,8.2-2.9,9.5-6.9
		c7.6-3.5,12.4-10.2,12.4-18.6c0.1-3.5-0.8-6.8-2.4-9.8c0.2-0.3,0.3-0.5,0.4-0.8c1.2-2.4,1.4-5.3,0.5-7.8c-2-5.7-5.8-9.9-11-12.3
		C287,114.9,283.3,112.1,279,112.1L279,112.1z"/>
</g>
<g id="fleece">
	<path class="st1" d="M555.4,80.4c-3.1,0-6.2-1.1-8.6-3c-0.1-0.1-0.2-0.1-0.3-0.2c-0.3-0.3-0.6-0.6-0.9-0.9c-2.1,2.5-5.3,4-9.1,4
		c-0.2,0-0.3,0-0.5,0h0c-3.2,0-6.2-1.2-8.5-3.5c-0.1-0.1-0.3-0.3-0.4-0.4c-2.2,2.5-5.6,3.9-9.5,4c-0.2,0-0.3,0-0.5,0c0,0,0,0,0,0
		c-3.1,0-6.2-1.1-8.6-3c-0.1-0.1-0.2-0.1-0.3-0.2c-0.3-0.2-0.5-0.5-0.8-0.8c-2.2,2.5-5.6,4-9.5,4c-0.2,0-0.3,0-0.5,0c0,0,0,0,0,0
		c-2.8,0-5.5-0.9-7.8-2.5c-0.9,1.3-2.4,2.1-4.1,2.1h-5.6c-0.6,0-1.2-0.1-1.8-0.3c-0.5,0.1-1,0.2-1.5,0.2h-5.6c-2.8,0-5-2.2-5-5v-7
		c-1-0.9-1.6-2.2-1.6-3.7v-3.6c0-1.7,0.9-3.2,2.2-4.1c1.3-4.1,4.7-6.4,10-6.4c0.7,0,1.5,0,2.5,0.2c0.6,0.1,1.1,0.3,1.6,0.5h4.7
		c2.8,0,5,2.2,5,5v1.6c2.1-1.3,4.5-2,7-2c4.1,0,7.5,1.6,9.8,4.3c0.1-0.2,0.3-0.3,0.4-0.5c0.1-0.1,0.2-0.2,0.2-0.2
		c2.4-2.3,5.7-3.5,9.1-3.5c4,0,7.4,1.5,9.7,4.1c2.2-2.6,5.6-4.2,9.2-4.2l0.2,0c3.9,0,7.2,1.6,9.3,4.2c0.1-0.1,0.2-0.2,0.3-0.3
		c0.1-0.1,0.2-0.2,0.2-0.2c2.4-2.3,5.7-3.5,9.1-3.5c7.5,0,12.7,5.3,12.7,12.8v0.8c0,0.3,0,0.7-0.1,1c0,0.4,0,0.9-0.1,1.3
		c-1.2,5.4-6,8.9-12.1,9C555.7,80.4,555.6,80.4,555.4,80.4C555.4,80.4,555.4,80.4,555.4,80.4z"/>
	<path class="st2" d="M477,55.2c0.6,0,1.1,0,1.7,0.1V59c-0.2,0-0.3,0-0.5,0h-0.1c-0.7,0.1-1.3,0.7-1.3,1.4v0.4h1.9v3.6h-1.8L477,75
		h-5.6V64.3h-1.6v-3.6h1.6C471.4,56.9,472.8,55.2,477,55.2 M485.8,55.9v19.2h-5.6V55.9H485.8 M536.3,60.4c0.1,0,0.1,0,0.2,0
		c3.6,0,6.4,2.1,6.8,5.7l-4.9,0.4v-0.1c-0.2-1-0.5-2.1-1.7-2.1c-1.8,0-1.8,2.3-1.8,3.6c0,1.3,0.1,3.5,1.9,3.5c1.2,0,1.7-1.1,1.8-2.1
		l4.7,0.3c-0.5,3.7-3.1,5.7-6.8,5.7c-0.1,0-0.3,0-0.4,0c-1.9,0-3.6-0.7-4.9-2c-1.4-1.4-2.1-3.4-2.1-5.4c0-0.2,0-0.4,0-0.6
		C529.3,63.4,532.5,60.4,536.3,60.4 M555.5,60.5c4.8,0,7.7,3.1,7.7,7.8v0.8h-9.6c0,1.6,0.5,2.7,2.2,2.7h0.1c1.1,0,2-0.7,2.1-1.8
		l5.1,0.3c-0.8,3.5-3.9,5.1-7.3,5.1c-0.1,0-0.3,0-0.4,0c-2,0-3.9-0.7-5.4-1.9c-1.5-1.4-2.3-3.4-2.3-5.4s0.7-3.9,2.1-5.4
		C551.3,61.3,553.4,60.5,555.5,60.5 M553.6,66.3h4c0-1.4-0.4-2.5-2-2.5C554.1,63.8,553.6,65,553.6,66.3 M517.4,60.5
		c4.8,0,7.7,3.1,7.7,7.8v0.8h-9.6c0,1.6,0.5,2.7,2.2,2.7h0.1c1.1,0,2-0.7,2.1-1.8l5.1,0.3c-0.8,3.5-3.9,5.1-7.3,5.1
		c-0.1,0-0.3,0-0.4,0c-2,0-3.9-0.7-5.4-1.9c-1.5-1.4-2.3-3.4-2.3-5.4s0.7-3.9,2.1-5.4C513.2,61.3,515.3,60.5,517.4,60.5 M515.5,66.3
		h4c0-1.4-0.4-2.5-2-2.5C516,63.8,515.5,65,515.5,66.3 M497.8,60.5c4.8,0,7.7,3.1,7.7,7.8v0.8h-9.6c0,1.6,0.5,2.7,2.2,2.7h0.1
		c1.1,0,2-0.7,2.1-1.8l5.1,0.3c-0.8,3.5-3.9,5.1-7.3,5.1c-0.1,0-0.3,0-0.4,0c-2,0-3.9-0.7-5.4-1.9c-1.5-1.4-2.3-3.4-2.3-5.4
		s0.7-3.9,2.1-5.4C493.6,61.3,495.7,60.5,497.8,60.5 M495.9,66.3h4c0-1.4-0.4-2.5-2-2.5C496.4,63.8,495.9,65,495.9,66.3 M477,45.2
		c-7,0-12,3.1-14.3,8.4c-1.8,1.8-2.9,4.3-2.9,7.1v3.6c0,2,0.6,3.9,1.6,5.4V75c0,5.5,4.5,10,10,10h5.6c0.4,0,0.9,0,1.3-0.1
		c0.6,0.1,1.3,0.2,1.9,0.2h5.6c1.7,0,3.3-0.4,4.7-1.2c2.3,1,4.7,1.5,7.2,1.5c0.2,0,0.4,0,0.6,0c3.5,0,6.7-1,9.4-2.6
		c2.9,1.7,6.2,2.6,9.5,2.6c0.2,0,0.4,0,0.6,0c3.5,0,6.7-1,9.3-2.6c2.6,1.6,5.7,2.5,8.9,2.5c0.2,0,0.4,0,0.6,0c3.4,0,6.5-0.9,9.1-2.5
		c2.9,1.7,6.2,2.7,9.6,2.7c0.2,0,0.4,0,0.6,0c8.3-0.1,15.1-5.2,16.8-12.9c0.2-0.7,0.2-1.3,0.2-2c0.1-0.5,0.1-1,0.1-1.4v-0.8
		c0-10.3-7.4-17.8-17.7-17.8c-3.3,0-6.6,0.9-9.5,2.6c-2.6-1.7-5.9-2.7-9.4-2.7c-0.1,0-0.2,0-0.3,0c0,0,0,0,0,0c-3.4,0-6.6,1-9.3,2.7
		c-2.7-1.7-6-2.6-9.6-2.6c-3.4,0-6.8,1-9.7,2.8c-2.8-1.8-6.1-2.8-9.9-2.8c-1.1,0-2.3,0.1-3.4,0.3c-1.7-2.9-4.9-4.9-8.6-4.9h-3.7
		c-0.6-0.2-1.2-0.4-1.8-0.5C478.9,45.2,477.8,45.2,477,45.2L477,45.2z"/>
</g>
<g id="from-3">
	<path class="st1" d="M436.5,112.8c-2.3,0-4.3-0.9-5.7-2.4c-1.2-1.4-1.7-3.3-1.4-5.3c0.4-2.6,2.2-4.5,4.6-5.1
		c0.1-0.6,0.2-1.1,0.2-1.5c0.1-0.5,0.1-0.9,0.2-1.4c-0.5-1-0.7-2.1-0.5-3.2l0.2-1.1c0.3-1.8,1.6-3.2,3.2-3.8
		c2.9-4.8,6.9-5.4,8.6-5.4c2.3,0,4.3,0.9,5.7,2.5c0.6,0.7,1,1.4,1.3,2.2c0,0,0,0,0,0c1.1,0,2.2,0.3,3.2,0.7c1.2-0.5,2.5-0.7,3.8-0.7
		c2,0,3.5,0.5,4.7,1.1c1.3-0.8,2.6-1.1,3.9-1.1c1,0,1.9,0.2,2.8,0.5c0.9-0.3,1.9-0.5,2.8-0.5c1,0,1.9,0.2,2.8,0.5
		c0.9-0.3,1.8-0.5,2.8-0.5c3.2,0,5,1.6,5.7,2.6c1.4,1.8,1.6,3.9,1.4,5.5c0.8,1,1.1,2.2,1,3.5c-0.5,5.4-3.9,8.9-8.5,8.9
		c-1.4,0-2.5-0.3-3.4-0.7c-0.5,0.1-1,0.2-1.5,0.2c-0.2,0-0.3,0-0.5,0c-0.4,0-1-0.1-1.2-0.1c-0.2,0-0.8,0-1.2,0.1c-0.2,0-0.3,0-0.5,0
		c-0.3,0-0.5,0-0.8-0.1c-0.4,0.1-0.8,0.2-1.3,0.2c-0.2,0-0.3,0-0.5,0c-0.4,0-0.9-0.1-1.1-0.1c-0.4,0-1.1,0.1-1.1,0.1
		c-0.2,0-0.3,0-0.5,0c-0.9,0-1.8-0.3-2.6-0.8c-1.4,0.7-3.1,1.2-4.8,1.2c-2.7,0-4.6-0.9-5.8-1.9c-0.9,0.8-2.1,1.4-3.4,1.4
		c-0.2,0-0.3,0-0.5,0l0,0c-0.4,0-0.9-0.1-1.1-0.1c-0.4,0-1.1,0.1-1.1,0.1c-0.2,0-0.3,0-0.5,0c-0.5,0-1-0.1-1.4-0.2
		C442.8,110.8,440.3,112.8,436.5,112.8z"/>
	<path class="st2" d="M446,88.6c1.7,0,2.5,1,2.3,2.3c0,1-0.8,1.8-1.8,1.8c-0.1,0-0.3,0-0.4,0c-0.6-0.1-1-0.7-0.9-1.3
		c0-0.1,0.1-0.2,0.1-0.3c0.2-0.6,0.8-0.9,1.3-0.9c0.2,0,0.4,0,0.6,0.1c-0.1-0.4-0.6-0.7-1.1-0.7c-1.2,0-2,1.1-2.6,4.1h1.9l-0.2,1.1
		h-1.9l-0.1,1c-1.3,8.9-3.5,12-6.7,12c-1.6,0-2.3-0.8-2.1-1.9c0.1-0.7,0.6-1.1,1.3-1.1c0,0,0.1,0,0.1,0c0.1,0,0.2,0,0.3,0
		c0.5,0.2,0.8,0.7,0.6,1.2c-0.2,0.5-0.7,0.8-1.2,0.8c-0.1,0-0.2,0-0.2,0c0.2,0.2,0.5,0.2,0.7,0.2c1.9,0,2.4-2.3,3.2-7.8
		c0.2-1.5,0.6-2.9,1-4.4h-1.3l0.2-1.1l1.5,0.1C442.2,89.6,444.4,88.6,446,88.6 M448.7,93.2c1,0,1.8,0.9,1.8,1.9
		c0.4-1,1.4-1.8,2.5-1.8c1.3,0,2,0.9,1.8,2.5c-0.2,1.5-0.9,2.1-1.9,2.1c-0.1,0-0.1,0-0.2,0c-0.1,0-0.2,0-0.3,0
		c-0.6-0.2-1-0.9-0.8-1.6v0c0,0,0,0,0,0c0.2-0.8,0.8-1.2,1.6-1.2c0.1,0,0.2,0,0.2,0c-0.1-0.4-0.4-0.6-0.8-0.6c-0.8,0-1.7,0.6-2.2,3
		c-0.2,1.1-1.1,5.2-1.2,5.9c0,0-1-0.1-1.6-0.1c-0.5,0-1.6,0.1-1.6,0.1c0.3-1.5,1-4.9,1.3-6.4c0.2-1.5,0.4-2.2,0-2.2
		c-0.6,0-1.1,1.2-1.3,2.9l-0.8-0.1c0.2-2.1,1.1-4.4,3.3-4.4C448.6,93.2,448.6,93.2,448.7,93.2 M479.8,93.3c1.9,0,2.7,1.2,1.9,4.3
		l-0.7,2.8c-0.4,1.5-0.4,2,0.1,2s0.9-1.2,1.1-2.9h0.8c-0.2,2.2-1.2,4.4-3.5,4.4c-2.2,0-2.7-1.6-2-4l0.6-2.4c0.6-2.2,0.3-2.7-0.2-2.7
		c-0.8,0-1.5,0.8-2.3,4v0.1l-1,4.5c0,0-1.1-0.1-1.7-0.1s-1.7,0.1-1.7,0.1c0.3-1.4,1.1-4.5,1.4-5.9c0.5-2.1,0.4-2.7-0.2-2.7
		c-0.8,0-1.7,1.1-2.5,4.8l-0.8,3.9c0,0-1-0.1-1.6-0.1c-0.5,0-1.6,0.1-1.6,0.1c0.4-1.6,1.1-5,1.4-6.6c0.3-1.6,0.4-2,0-2
		c-0.7,0-1.1,1.2-1.3,2.9l-0.7-0.1c0.3-2.1,1.2-4.4,3.3-4.4c1.5,0,2.1,0.9,2.1,2.4c0.6-1.4,2-2.4,3.5-2.4c1.4,0,2.2,0.6,2.2,2.2
		C477,94.2,478.3,93.3,479.8,93.3 M460,93.3c2.7,0,4.2,1.4,4,4.5c-0.2,3.3-2.1,6.1-5.6,6.1c-2.7,0-4.3-1.5-4-4.8
		C454.8,95.9,456.8,93.3,460,93.3 M458.5,102.5c0.9,0,1.7-1.9,2.2-5.3c0.3-2,0-2.4-0.7-2.4c-1,0-1.7,1.8-2.2,5
		C457.5,101.9,457.8,102.5,458.5,102.5 M446,78.6c-3.3,0-6.4,1.1-9,3.3c-1.1,0.9-2.1,2-3,3.3c-2.4,1.4-4.2,3.9-4.7,6.8l-0.2,1.1
		c-0.2,1.3-0.2,2.6,0.1,3.9c-2.4,1.7-4.1,4.3-4.6,7.4c-0.6,3.3,0.3,6.7,2.5,9.3c2.3,2.7,5.7,4.2,9.5,4.2c3.9,0,7.5-1.6,10.3-4.4
		c0,0,0.1,0,0.1,0c0.2,0,0.5,0,0.7-0.1c0.2,0,0.4,0,0.6,0c0.3,0,0.7,0.1,1,0.1c1.2,0,2.3-0.2,3.4-0.6c1.8,0.7,3.7,1.1,5.8,1.1
		c1.7,0,3.3-0.3,4.9-0.8c0.9,0.2,1.7,0.4,2.6,0.4c0.3,0,0.6,0,0.9,0c0.2,0,0.5,0,0.7-0.1c0.2,0,0.4,0,0.6,0c0.3,0,0.7,0,1,0
		c0.5,0,1,0,1.5-0.1c0.2,0,0.4,0,0.6,0c0.3,0,0.6,0,0.9,0c0.3,0,0.6,0,0.8-0.1c0.2,0,0.5,0,0.8,0.1c0.3,0,0.6,0,0.9,0
		c0.4,0,0.7,0,1.1-0.1c1.2,0.4,2.5,0.6,3.8,0.6c7.2,0,12.7-5.5,13.5-13.5c0.2-1.8-0.2-3.6-1-5.3c-0.1-2.8-0.9-5.2-2.5-7.3
		c-2.3-2.9-5.7-4.6-9.7-4.6c-0.9,0-1.9,0.1-2.8,0.3c-0.9-0.2-1.8-0.3-2.8-0.3c-1,0-1.9,0.1-2.8,0.3c-0.9-0.2-1.8-0.3-2.8-0.3
		c-1.3,0-2.7,0.2-4,0.7c-1.3-0.4-2.9-0.7-4.6-0.7c-1.3,0-2.5,0.2-3.7,0.4c0,0-0.1,0-0.1,0c-0.2-0.3-0.5-0.6-0.7-0.9
		C453.2,80.1,449.8,78.6,446,78.6L446,78.6z M476,98.7C476,98.7,476,98.7,476,98.7L476,98.7L476,98.7z"/>
</g>
<g id="_3">
	<path class="st1" d="M455.6,163.2c-2.8,0-5-2.2-5-5v-0.6c-6-2-10.3-6.6-11.8-12.9c-0.3-1.3-0.1-2.7,0.7-3.9
		c0.7-1.1,1.9-1.9,3.3-2.2h0.1c-1.5-2.1-2.5-4.8-2.5-8.4c0-6.7,4-12.2,10.2-14.5v-0.5c0-2.8,2.2-5,5-5h5c2.8,0,5,2.2,5,5v0.3
		c6.4,2.1,9.4,6.6,10.7,10.4c0.5,1.3,0.4,2.7-0.2,3.9c-0.5,1.1-1.4,1.9-2.6,2.4c2.6,2.7,4.1,6.4,4,10.3c0,7.2-4.6,12.8-11.9,15v0.5
		c0,2.8-2.2,5-5,5h-5V163.2z"/>
	<path class="st2" d="M460.6,115.3v4.3h0.1c5.1,0.6,9.1,3,10.9,8.1l-8.2,2.6c-0.9-2.4-2.7-3.3-5.2-3.3c-1.4,0-3.2,0.4-3.2,2.1
		c0,1.7,2.3,2,3.6,2.3c3.1,0.7,6.5,1.2,9.3,2.8c2.9,1.8,4.6,4.9,4.5,8.3c0,6.8-5.7,10.3-11.8,11.1l-0.1,0.1v4.5h-5v-4.6
		c-5.8-0.6-10.6-4.1-11.9-9.9l9.2-1.7c0.8,2.9,2.9,4,5.8,4c1.4,0,3.8-0.2,3.8-2c0-2-2.4-2.4-3.9-2.7c-6.2-1.2-13.2-3-13.2-10.8
		c0-6,4.6-10,10.2-10.6l0,0v-4.4h5.1 M460.6,105.3h-5c-4.5,0-8.4,3-9.6,7.2c-6.5,3.6-10.7,10.2-10.7,17.9c0,2.3,0.3,4.5,1,6.5
		c-0.4,0.4-0.7,0.9-1.1,1.3c-1.5,2.3-2,5.1-1.4,7.7c1.6,6.8,6,12.2,12.1,15.2c1.3,4.1,5.1,7.1,9.6,7.1h5c4.4,0,8.2-2.9,9.5-6.9
		c7.6-3.5,12.3-10.3,12.4-18.6c0.1-3.5-0.8-6.8-2.4-9.8c0.2-0.3,0.3-0.5,0.4-0.8c1.2-2.4,1.4-5.3,0.5-7.8c-2-5.7-5.8-9.9-11-12.4
		C468.6,108.1,464.9,105.3,460.6,105.3L460.6,105.3z"/>
</g>
<g id="_12">
	<path class="st1" d="M537.7,183.5c-0.8,0-1.5-0.2-2.1-0.5c-0.6,0.3-1.4,0.5-2.1,0.5h-52.7c-2.8,0-5-2.2-5-5v-15.3c0-2.8,2.2-5,5-5
		h11.9v-20.1c-3,1.1-6.1,2-9.4,2.5c-0.2,0-0.5,0-0.7,0c-1.2,0-2.4-0.4-3.3-1.2c-1.1-0.9-1.7-2.3-1.7-3.8v-15.5
		c0-2.3,1.6-4.4,3.9-4.9c5.8-1.3,13.5-3.9,16.6-9.1c0.9-1.5,2.5-2.4,4.3-2.4h14.9c2.8,0,5,2.2,5,5v49.4h11.2c0.6,0,1.2,0.1,1.7,0.3
		l22.8-17.1l0,0c3.6-3.1,7.3-6.3,7.3-9.9c0-2.2-1.3-2.2-1.7-2.2c-2.7,0-3.4,4.5-3.5,7.2c-0.1,1.4-0.8,2.8-1.9,3.7
		c-0.9,0.7-2,1-3.1,1c-0.3,0-0.6,0-1-0.1l-17.3-3.4c-2.6-0.5-4.3-2.9-4-5.5c2.2-17.2,14.9-28.3,32.3-28.3c18.1,0,30.3,11,30.3,27.2
		c0,8.2-3.4,15.2-10.5,21.5c-0.1,0.1-0.2,0.2-0.3,0.3l-5.2,3.9h11.4c1.4,0,2.7,0.6,3.6,1.5s1.4,2.3,1.4,3.7l-0.8,16.8
		c-0.1,2.7-2.3,4.8-5,4.8L537.7,183.5L537.7,183.5z"/>
	<path class="st2" d="M565.1,108.8c13.7,0,25.3,7.4,25.3,22.2c0,7.4-3.4,12.9-8.8,17.7l-15.9,11.9l-1.6,1h26.7l-0.8,16.8h-52.2
		v-15.7l23.3-17.5c4.2-3.6,9.2-7.8,9.2-13.8c0-4-2.5-7.2-6.7-7.2c-6.4,0-8.2,6.6-8.5,11.9l-17.3-3.4
		C539.6,118,550.2,108.8,565.1,108.8 M517.3,108.8v54.4h16.2v15.3h-52.7v-15.3h16.9v-32.7l-0.8,0.4c-4.6,2-9.2,4-14.3,4.7v-15.5
		c7.2-1.6,15.8-4.8,19.8-11.3H517.3 M565.1,98.8c-9.7,0-18.4,3.1-25.1,8.9c-6.7,5.9-10.9,14.1-12.1,23.7c-0.7,5.2,2.8,10.1,8,11.1
		l9.7,1.9l-11.6,8.8c-0.1,0-0.3,0-0.4,0h-6.2v-44.4c0-5.5-4.5-10-10-10h-14.9c-3.5,0-6.7,1.8-8.5,4.8c-1.7,2.8-6.6,5.3-13.5,6.8
		c-4.6,1-7.8,5.1-7.8,9.8v15.5c0,2.9,1.2,5.6,3.4,7.5c1.8,1.6,4.2,2.5,6.6,2.5c0.5,0,0.9,0,1.4-0.1c1.3-0.2,2.5-0.4,3.8-0.7v8.3H481
		c-5.5,0-10,4.5-10,10v15.3c0,5.5,4.5,10,10,10h52.7c0.7,0,1.5-0.1,2.1-0.2c0.7,0.2,1.4,0.2,2.1,0.2h52.2c5.3,0,9.7-4.2,10-9.5
		l0.8-16.8c0.1-2.7-0.9-5.4-2.8-7.4c-1.5-1.5-3.4-2.6-5.5-2.9c5.3-6.2,7.8-13,7.8-20.8C600.4,112,585.8,98.8,565.1,98.8L565.1,98.8z
		"/>
</g>
<g id="Rainbow">
	<path class="st2" d="M316.5,215c42.2,0,76.5,32.2,76.5,71.8c0,2.7,0.4,3.7-1,6c-2.7,4.3-6.5,4.8-10.1,5c-8.8,0.5-30.7,0-65.3,0
		c-34.1,0-43.6,0.2-61.3,0c-9.3-0.1-11.2-2.1-12.2-3c-1.7-1.5-3-4.9-3-8C240,247.2,274.2,215,316.5,215z"/>
	<path class="st3" d="M368.5,287.5c-1.2-29.3-26-52-55.2-50.7c-27.5,1.2-49.5,23.2-50.7,50.7h-12.4c1.2-36.1,31.5-64.4,67.6-63.2
		c34.4,1.2,62,28.8,63.2,63.2H368.5L368.5,287.5z"/>
	<path class="st4" d="M351.2,287.3c-1.6-19.9-19-34.7-38.8-33.1c-17.7,1.4-31.7,15.4-33.1,33.1h-12.5c1.3-25.3,22.5-45.6,48.5-45.6
		s47.2,20.2,48.5,45.6H351.2z"/>
	<path class="st5" d="M314.7,271.1c-9.5,0.1-17.3,7.2-18.4,16.6h-12.4c1.2-16.4,14.6-29.3,30.9-29.3s29.7,13,30.9,29.3h-12.4
		C332.1,278.3,324.2,271.2,314.7,271.1z"/>
	<path class="st6" d="M300.7,288c1.4-7.7,8.7-12.8,16.4-11.5c5.9,1,10.5,5.6,11.5,11.5H300.7z"/>
</g>
</svg>
